<svg id="ezdJhs0N1yg1" xmlns="http://www.w3.org/2000/svg" xmlns:xlink="http://www.w3.org/1999/xlink" viewBox="0 0 300 300" shape-rendering="geometricPrecision" text-rendering="geometricPrecision"><path d="M7.42453,143.596049c0,0,59.021275-8.582748,86.69274-8.829816c37.439995-.334287,40.457889,12.697452,49.768054,14.850145c10.10591,2.336685,13.117189-7.210363,47.359922-6.421684c30.715039.707429,91.107648,17.659632,91.107648,17.659632s-17.98375,7.026104-50.97212,8.829816c-24.337203,1.330691-54.091018-9.051934-64.6182-5.618974-24.796472,8.086238-19.79783,30.327311-34.115198,23.679961s-6.425244-25.537647-21.765281-31.162327c-8.209636-3.0102-35.986162-1.087209-60.51255-.544739-21.30216.471158-42.945015-12.442014-42.945015-12.442014Z" transform="translate(6.823041-1.204062)" stroke="#3f5787" stroke-width="0.6"/></svg>
